<?xml version="1.0" encoding="iso-8859-1"?>
<!-- Generator: Adobe Illustrator 19.0.0, SVG Export Plug-In . SVG Version: 6.00 Build 0)  -->
<svg version="1.1" id="Capa_1" xmlns="http://www.w3.org/2000/svg" xmlns:xlink="http://www.w3.org/1999/xlink" x="0px" y="0px"
	 viewBox="0 0 468.293 468.293" style="enable-background:new 0 0 468.293 468.293;" xml:space="preserve">
<path style="fill:#27A2DB;" d="M468.293,220.098v89.912c0,6.868-5.62,13.112-13.112,13.112H6.244C2.498,323.122,0,320,0,316.878
	v-54.322c0-11.863,3.746-22.478,9.99-31.219c9.99-14.361,26.224-23.102,44.956-23.102h46.205l51.824-81.795
	c8.741-13.737,24.351-22.478,40.585-22.478h167.961c16.234,0,31.844,8.117,40.585,22.478l51.824,80.546h1.249
	C462.673,206.985,468.293,213.229,468.293,220.098z"/>
<path style="fill:#E1E6E9;" d="M290.341,188.254h116.761l-26.224-46.205c-4.371-7.493-11.239-11.863-19.356-11.863h-71.18V188.254z"
	/>
<path style="fill:#EBF0F3;" d="M270.985,130.185v58.068H147.98l26.224-46.205c4.371-7.493,11.239-11.863,19.356-11.863H270.985z"/>
<path style="fill:#2D93BA;" d="M468.293,300.02v9.366c0,6.868-5.62,13.112-13.112,13.112H6.244c-3.746,0-6.244-3.122-6.244-6.244
	V300.02H468.293z"/>
<path style="fill:#E56353;" d="M41.21,230.712c5.62,0,10.615,5.62,8.741,11.239c-1.873,8.741-6.244,16.234-12.488,21.854
	c-8.741,8.741-20.605,13.737-33.093,13.737H0v-15.61c0-11.863,3.746-22.478,9.99-31.219H41.21z"/>
<path style="fill:#FCD462;" d="M28.098,230.712c5.62,0,10.615,5.62,8.741,11.239c-1.873,8.741-6.244,16.234-12.488,21.854
	c-5.62,5.62-14.985,9.366-24.351,11.863v-13.737c0-11.863,3.746-22.478,9.99-31.219H28.098z"/>
<circle style="fill:#64798A;" cx="381.502" cy="322.498" r="41.834"/>
<circle style="fill:#D5D6DB;" cx="381.502" cy="322.498" r="22.478"/>
<circle style="fill:#64798A;" cx="86.79" cy="322.498" r="41.834"/>
<circle style="fill:#D5D6DB;" cx="86.79" cy="322.498" r="22.478"/>
<path style="fill:#E56353;" d="M468.293,220.098v33.717h-12.488c-12.488,0-21.854-9.99-21.854-21.854v-16.859
	c0-4.371,3.746-8.117,8.117-8.117h13.737C462.673,206.985,468.293,213.229,468.293,220.098z"/>
<path style="fill:#FCD462;" d="M468.293,220.098v33.717h-2.498c-12.488,0-21.854-9.99-21.854-21.854v-13.112
	c0-6.868,5.62-11.863,11.863-11.863l0,0C462.673,206.985,468.293,213.229,468.293,220.098z"/>
<g>
</g>
<g>
</g>
<g>
</g>
<g>
</g>
<g>
</g>
<g>
</g>
<g>
</g>
<g>
</g>
<g>
</g>
<g>
</g>
<g>
</g>
<g>
</g>
<g>
</g>
<g>
</g>
<g>
</g>
</svg>
